<svg t="1692879450168" class="icon" viewBox="0 0 1024 1024" version="1.1" xmlns="http://www.w3.org/2000/svg" p-id="2324" width="200" height="200"><path d="M423.128 711.528v-53.8H313.704v-44.864l115.992-169.792h43.04v169.608h33.192v45.048h-33.192v53.8h-49.608z m0-98.84V521.32l-61.456 91.368h61.456zM616.992 443.08c25.888 0 46.144 9.24 60.728 27.72 17.384 21.88 26.08 58.176 26.08 108.88 0 50.576-8.752 86.928-26.256 109.056-14.472 18.232-34.656 27.36-60.544 27.36-26.024 0-46.992-10-62.92-30s-23.888-55.656-23.888-106.96c0-50.336 8.76-86.568 26.264-108.696 14.448-18.24 34.64-27.36 60.536-27.36z m0 42.496c-6.2 0-11.736 1.976-16.6 5.928-4.856 3.952-8.632 11.032-11.304 21.248-3.528 13.256-5.288 35.56-5.288 66.936 0 31.368 1.576 52.912 4.744 64.648s7.144 19.544 11.944 23.44 10.304 5.832 16.504 5.832a25.6 25.6 0 0 0 16.592-5.928c4.856-3.952 8.632-11.032 11.304-21.248 3.52-13.128 5.288-35.376 5.288-66.744 0-31.376-1.576-52.92-4.744-64.656-3.168-11.736-7.144-19.576-11.944-23.528a25.232 25.232 0 0 0-16.496-5.928zM736.256 640.584l49.608-6.016c1.576 12.648 5.832 22.312 12.768 29s15.32 10.032 25.168 10.032c10.576 0 19.488-4.016 26.72-12.04s10.848-18.84 10.848-32.464c0-12.888-3.464-23.104-10.392-30.64s-15.384-11.304-25.352-11.304c-6.568 0-14.408 1.272-23.528 3.832l5.656-41.768c13.856 0.368 24.44-2.64 31.736-9.024s10.944-14.864 10.944-25.44c0-9-2.68-16.168-8.032-21.52-5.352-5.344-12.464-8.024-21.336-8.024-8.752 0-16.224 3.04-22.432 9.12s-9.968 14.952-11.304 26.624l-47.232-8.024c3.28-16.168 8.232-29.088 14.856-38.752 6.624-9.664 15.864-17.264 27.72-22.8 11.856-5.528 25.144-8.304 39.848-8.304 25.168 0 45.352 8.024 60.544 24.072 12.52 13.136 18.784 27.968 18.784 44.504 0 23.464-12.832 42.192-38.48 56.168 15.32 3.28 27.56 10.64 36.752 22.072 9.176 11.432 13.768 25.224 13.768 41.4 0 23.464-8.568 43.472-25.712 60-17.152 16.528-38.488 24.808-64.016 24.808-24.192 0-44.256-6.96-60.176-20.88-15.928-13.928-25.168-32.128-27.728-54.632z" p-id="2325"></path><path d="M893.84 198.04H135.936v624.808h216.776v-46.952H183.904V245h661.984v103.808h47.952V198.04z" p-id="2326"></path></svg>
