<svg t="1692885837583" class="icon" viewBox="0 0 1024 1024" version="1.1" xmlns="http://www.w3.org/2000/svg" p-id="2759" width="500" height="500"><path d="M383.64 711.984v-49.096H283.776v-40.936l105.856-154.96h39.264v154.784h30.296v41.12h-30.296v49.096h-45.256z m0-90.2V538.4l-56.088 83.384h56.088z m176.912-154.784c23.632 0 42.112 8.432 55.424 25.296 15.864 19.968 23.8 53.096 23.8 99.36 0 46.168-7.976 79.336-23.952 99.528-13.208 16.64-31.632 24.968-55.248 24.968-23.76 0-42.888-9.128-57.424-27.376-14.544-18.256-21.808-50.8-21.808-97.616 0-45.936 7.992-79 23.968-99.192 13.192-16.64 31.6-24.968 55.24-24.968z m0 38.784c-5.656 0-10.712 1.808-15.152 5.416-4.424 3.6-7.872 10.064-10.32 19.384-3.208 12.096-4.832 32.464-4.832 61.096 0 28.624 1.448 48.288 4.336 58.992 2.896 10.712 6.52 17.832 10.904 21.392a23.224 23.224 0 0 0 15.056 5.328 23.416 23.416 0 0 0 15.152-5.408c4.44-3.608 7.864-10.072 10.32-19.4 3.2-11.976 4.824-32.28 4.824-60.904 0-28.632-1.44-48.304-4.328-59.008-2.888-10.712-6.52-17.864-10.904-21.472a22.952 22.952 0 0 0-15.056-5.416z m189.584-38.784c23.632 0 42.112 8.432 55.424 25.296 15.864 19.968 23.8 53.096 23.8 99.36 0 46.168-7.992 79.336-23.968 99.528-13.208 16.64-31.616 24.968-55.248 24.968-23.744 0-42.888-9.128-57.424-27.376-14.528-18.256-21.792-50.8-21.792-97.616 0-45.936 7.984-79 23.96-99.192 13.192-16.64 31.608-24.968 55.248-24.968z m0 38.784a23.36 23.36 0 0 0-15.152 5.416c-4.44 3.6-7.872 10.064-10.32 19.384-3.216 12.096-4.832 32.464-4.832 61.096 0 28.624 1.448 48.288 4.336 58.992 2.88 10.712 6.52 17.832 10.904 21.392a23.2 23.2 0 0 0 15.056 5.328c5.664 0 10.704-1.808 15.152-5.408 4.44-3.608 7.864-10.072 10.32-19.4 3.2-11.976 4.824-32.28 4.824-60.904 0-28.632-1.44-48.304-4.328-59.008-2.888-10.712-6.52-17.864-10.896-21.472a22.976 22.976 0 0 0-15.064-5.416z" p-id="2760"></path><path d="M893.232 249.024c0-13.904-13.128-25.176-29.32-25.176H160.096c-16.208 0-29.328 11.272-29.328 25.176v528.648c0 13.904 13.128 25.16 29.328 25.16h187.808v-34.816h-178.4V258.68h685V442.8h38.736V249.024z" p-id="2761"></path></svg>
