<svg t="1692879507959" class="icon" viewBox="0 0 1024 1024" version="1.1" xmlns="http://www.w3.org/2000/svg" p-id="2614" width="200" height="200"><path d="M323.368 642.776l51.064-5.288c1.456 11.552 5.776 20.704 12.952 27.456 7.168 6.744 15.44 10.12 24.8 10.12 10.696 0 19.76-4.344 27.176-13.04 7.416-8.688 11.128-21.792 11.128-39.296 0-16.416-3.68-28.728-11.032-36.928-7.36-8.208-16.936-12.312-28.72-12.312-14.712 0-27.904 6.504-39.576 19.512l-41.584-6.024 26.264-139.152h135.504v47.968H394.672l-8.024 45.408c11.424-5.712 23.096-8.568 35.016-8.568 22.736 0 42 8.264 57.816 24.808 15.808 16.528 23.704 37.992 23.704 64.376 0 22.008-6.384 41.64-19.152 58.904-17.384 23.584-41.52 35.384-72.4 35.384-24.68 0-44.808-6.624-60.36-19.88-15.568-13.264-24.864-31.072-27.904-53.448zM616.992 443.08c25.888 0 46.144 9.24 60.728 27.72 17.384 21.88 26.08 58.176 26.08 108.88 0 50.576-8.752 86.928-26.256 109.056-14.472 18.232-34.656 27.36-60.544 27.36-26.024 0-46.992-10-62.92-30s-23.888-55.656-23.888-106.96c0-50.336 8.76-86.568 26.264-108.696 14.448-18.24 34.64-27.36 60.536-27.36z m0 42.496c-6.2 0-11.736 1.976-16.6 5.928-4.856 3.952-8.632 11.032-11.304 21.248-3.528 13.256-5.288 35.56-5.288 66.936 0 31.368 1.576 52.912 4.744 64.648s7.144 19.544 11.944 23.44 10.304 5.832 16.504 5.832a25.6 25.6 0 0 0 16.592-5.928c4.856-3.952 8.632-11.032 11.304-21.248 3.52-13.128 5.288-35.376 5.288-66.744 0-31.376-1.576-52.92-4.744-64.656-3.168-11.736-7.144-19.576-11.944-23.528a25.232 25.232 0 0 0-16.496-5.928zM824.712 443.08c25.896 0 46.144 9.24 60.736 27.72 17.384 21.88 26.08 58.176 26.08 108.88 0 50.576-8.76 86.928-26.264 109.056-14.472 18.232-34.648 27.36-60.544 27.36-26.016 0-46.992-10-62.912-30-15.928-20-23.888-55.656-23.888-106.96 0-50.336 8.752-86.568 26.256-108.696 14.456-18.24 34.64-27.36 60.536-27.36z m0 42.496c-6.2 0-11.736 1.976-16.592 5.928-4.864 3.952-8.632 11.032-11.304 21.248-3.528 13.256-5.288 35.56-5.288 66.936 0 31.368 1.576 52.912 4.744 64.648 3.16 11.736 7.144 19.544 11.944 23.44 4.8 3.888 10.296 5.832 16.504 5.832s11.736-1.976 16.592-5.928c4.864-3.952 8.632-11.032 11.312-21.248 3.52-13.128 5.288-35.376 5.288-66.744 0-31.376-1.584-52.92-4.744-64.656-3.168-11.736-7.152-19.576-11.944-23.528a25.272 25.272 0 0 0-16.512-5.928z" p-id="2615"></path><path d="M893.84 198.04H135.936v624.808h216.776v-46.952H183.904V245h661.984v103.808h47.952V198.04z" p-id="2616"></path></svg>
