<svg t="1694503132918" class="icon" viewBox="0 0 1024 1024" version="1.1" xmlns="http://www.w3.org/2000/svg" p-id="7874" width="200" height="200"><path d="M654.885547 0.434424l4.468363 0.775758 87.024485 23.195151a76.396606 76.396606 0 0 1 45.350788 33.388606 69.507879 69.507879 0 0 1 10.426182 42.356364l-0.853333 6.423273-54.039273 202.379636 111.491879 33.093818c16.058182 4.313212 32.519758 14.041212 45.924848 27.430788 10.395152 10.395152 18.307879 22.357333 23.086546 34.428121l2.125575 6.019879 40.758303 185.018182c4.685576 21.255758-0.853333 40.184242-14.36703 53.061818-7.13697 6.733576-15.949576 11.341576-25.475879 13.374061-16.554667 45.08703-20.790303 73.634909-30.549333 138.488242-4.189091 27.865212-5.585455 37.236364-6.826667 45.614546a2461.121939 2461.121939 0 0 0-10.115879 75.403636c-4.561455 39.936-25.615515 71.19903-59.531636 89.072485a131.397818 131.397818 0 0 1-37.546667 13.032727L779.177425 1024l-102.337939-24.048485a28.485818 28.485818 0 0 1-18.059636-14.661818l-1.567031-3.754667 11.807031-33.109333a743.796364 743.796364 0 0 1-27.446303 27.772121 28.485818 28.485818 0 0 1-19.859394 8.005818l-3.646061-0.232727-78.941091-20.914424a28.485818 28.485818 0 0 1-18.090666-14.677333l-1.567031-3.770182 11.807031-33.093818a748.435394 748.435394 0 0 1-27.430788 27.756606 28.485818 28.485818 0 0 1-19.843879 8.005818l-3.661576-0.248243-91.865212-24.358788a28.485818 28.485818 0 0 1-18.059636-14.677333l-1.567031-3.770182 11.822546-33.093818a740.336485 740.336485 0 0 1-27.461818 27.772121 28.485818 28.485818 0 0 1-19.859394 8.005819l-3.646061-0.248243-66.032485-17.423515a28.485818 28.485818 0 0 1-18.059636-14.692849l-1.56703-3.754666 11.744969-32.938667c-5.026909 5.414788-10.426182 10.969212-16.352969 16.896a54.070303 54.070303 0 0 1-41.239273 15.778909l-5.740606-0.620606-83.843879-22.217697-24.886303-9.417697C50.55488 810.371879 34.13985 770.497939 39.942516 732.873697c6.144-39.920485 33.947152-73.340121 87.598546-96.147394 29.959758-12.753455 57.82497-62.510545 78.382545-131.211636l2.761697-9.495273-7.059394-23.117576c-19.285333-7.074909-32.147394-20.44897-37.019151-37.081212-4.220121-14.584242-1.892848-29.944242 7.028363-43.830303l3.646061-5.12 127.038061-139.667394c10.953697-11.993212 27.415273-21.674667 46.312727-26.732606 13.358545-3.568485 27.198061-4.654545 39.96703-3.258182l7.524849 1.101576 120.242424 31.992242c29.21503-102.275879 52.441212-163.483152 72.129939-199.245575 12.334545-22.419394 23.614061-35.343515 33.947152-42.496 11.372606-7.866182 22.000485-9.495273 32.426667-8.12994z m-384.775758 510.138182a574.634667 574.634667 0 0 1-26.282667 75.000242c-25.444848 58.135273-56.816485 94.487273-91.616969 109.288728-28.315152 12.039758-46.809212 27.787636-49.850182 47.584969-1.846303 11.946667 2.823758 24.54497 16.337454 41.611637l99.995152 12.753454 4.701091-4.189091c25.181091-22.853818 53.496242-54.582303 98.474667-103.951515 6.485333-1.613576 13.560242-1.536 24.63806 3.646061a31.542303 31.542303 0 0 1 15.096243 42.061576c-4.282182 9.014303-8.238545 17.330424-14.78594 30.502788l-3.847757 7.695515a6916.033939 6916.033939 0 0 1-30.533819 59.919515l30.099394-1.722182 4.732122-4.189091c25.367273-22.900364 53.79103-54.737455 99.017697-104.41697 6.438788-1.629091 13.498182-1.598061 24.66909 3.568485a31.464727 31.464727 0 0 1 15.173819 42.030546c-10.426182 21.969455-19.006061 39.765333-49.943273 99.452121l51.541333 2.094545 7.959273-7.168c24.048485-22.310788 49.896727-52.022303 77.575758-89.088a31.77503 31.77503 0 0 1 17.95103-11.884606c6.562909-1.598061 13.715394-1.442909 24.54497 3.770182 7.881697 3.801212 13.482667 10.426182 16.182303 18.059637 2.684121 7.64897 2.482424 16.321939-1.272243 24.203636a2062.941091 2062.941091 0 0 1-49.648485 98.84703l51.991273 2.172121 7.959273-7.152484c24.064-22.326303 49.927758-52.068848 77.637818-89.165576a31.77503 31.77503 0 0 1 17.857939-11.853576c6.516364-1.613576 13.653333-1.489455 24.607031 3.723636a31.619879 31.619879 0 0 1 14.91006 42.154667c-19.921455 41.689212-34.350545 70.780121-50.160485 99.793455l72.424728 6.050909 4.189091-2.947879c10.550303-8.22303 16.399515-19.905939 18.152727-35.172849 0.527515-4.608 3.289212-24.653576 7.043879-51.74303 2.280727-16.492606 4.918303-35.607273 9.681454-70.423273l3.723637-27.492848 2.296242-17.299394c4.483879-34.319515 8.192-66.932364 9.029818-96.442182L270.125304 510.572606zM646.647001 61.129697c-2.947879-0.186182-5.802667 2.203152-13.824 10.969212l-61.719273 229.438061-1.846303 3.785697a31.837091 31.837091 0 0 1-11.729454 11.791515c-5.942303 3.413333-12.76897 4.809697-23.893333 3.258182l-184.630303-30.564849-98.955637 130.637576 652.520727 158.68897-60.400484-176.09697-146.137213-39.424-3.847757-1.892849a31.806061 31.806061 0 0 1-11.605333-11.636363c-3.304727-5.709576-4.840727-12.458667-3.258182-23.877818L729.032456 83.006061l-82.40097-21.876364z" p-id="7875"></path></svg>
