<svg t="1692067669639" class="icon" viewBox="0 0 1024 1024" version="1.1" xmlns="http://www.w3.org/2000/svg" p-id="15622" width="200" height="200"><path d="M558.592 333.952l153.386667 154.88c16.64 16.64 44.629333 16.64 61.312 0l130.048-131.370667 13.098666-13.141333a38.997333 38.997333 0 0 0 6.826667-46.378667 436.053333 436.053333 0 0 0-161.28-169.088c-3.413333-2.005333-6.826667-4.010667-10.368-6.016a43.946667 43.946667 0 0 0-52.096 7.125334l-10.666667 10.794666-130.090666 131.328-3.242667 3.242667a38.826667 38.826667 0 0 0 0 55.253333l3.072 3.413334z m82.773333-11.477333l-1.621333-1.792a20.693333 20.693333 0 0 1 0-29.44l1.706667-1.749334 69.418666-70.058666 5.674667-5.76a23.466667 23.466667 0 0 1 27.776-3.84l5.546667 3.242666a232.533333 232.533333 0 0 1 81.792 82.602667c1.450667 2.474667 2.816 5.034667 4.224 7.594667a20.821333 20.821333 0 0 1-3.626667 24.746666l-6.997333 6.997334-69.376 70.016a23.338667 23.338667 0 0 1-32.682667 0l-81.792-82.56zM182.357333 294.485333a354.986667 354.986667 0 0 0-4.821333 10.24 40.917333 40.917333 0 0 0-52.906667-1.92 40.832 40.832 0 0 0-7.893333 55.509334l51.157333 72.021333v0.042667a40.96 40.96 0 0 0 66.645334 0l51.2-72.064a40.832 40.832 0 0 0-8.021334-55.594667L272.597333 298.666667a367.786667 367.786667 0 0 1 121.386667-121.002667 40.576 40.576 0 0 0 8.405333-62.549333l-2.346666-2.517334-1.109334-0.512a40.576 40.576 0 0 0-47.786666-4.437333 418.474667 418.474667 0 0 0-23.210667 15.018667l-0.042667 0.085333a451.498667 451.498667 0 0 0-145.536 171.733333zM836.949333 717.994667a451.541333 451.541333 0 0 1-153.173333 164.992l-0.085333 0.042666c-7.850667 4.949333-15.786667 9.6-23.850667 13.994667a40.576 40.576 0 0 1-47.530667-6.613333l-1.066666-0.597334-2.261334-2.56a40.576 40.576 0 0 1 11.264-62.165333 367.829333 367.829333 0 0 0 126.72-115.370667l-4.906666-4.266666a40.832 40.832 0 0 1-5.504-55.893334l54.4-69.674666a40.96 40.96 0 0 1 66.56 3.029333l0.042666 0.042667 47.786667 74.24a40.832 40.832 0 0 1-10.325333 55.082666 40.917333 40.917333 0 0 1-52.778667-4.266666c-1.706667 3.370667-3.456 6.698667-5.290667 9.984zM497.408 679.381333l-153.386667-154.88a43.776 43.776 0 0 0-61.312 0l-130.048 131.370667-13.098666 13.141333a38.997333 38.997333 0 0 0-6.826667 46.378667 436.053333 436.053333 0 0 0 171.648 175.104 43.946667 43.946667 0 0 0 52.096-7.125333l10.666667-10.794667 130.090666-131.328 3.242667-3.242667a38.826667 38.826667 0 0 0 0-55.253333l-3.072-3.413333z m-82.773333 11.477334l1.621333 1.792a20.693333 20.693333 0 0 1 0 29.44l-1.706667 1.749333-69.376 70.058667-5.717333 5.76a23.466667 23.466667 0 0 1-27.776 3.797333l-5.546667-3.2a232.533333 232.533333 0 0 1-86.016-90.197333 20.821333 20.821333 0 0 1 3.626667-24.746667l6.997333-6.997333 69.376-70.016a23.338667 23.338667 0 0 1 32.682667 0l81.792 82.56z" p-id="15623"></path></svg>
