<svg t="1692003113285" class="icon" viewBox="0 0 1024 1024" version="1.1" xmlns="http://www.w3.org/2000/svg" p-id="17062" width="200" height="200"><path d="M959 932.4L804.3 551.3c-6.2-15.4-21.2-25.5-37.8-25.5h-19.6c-16.4 0-31.2 9.8-37.6 25L548.5 932.3c-5 12 3.7 25.2 16.7 25.2h29.5c6.5 0 12.3-4 14.8-10l46.1-115.7H850l44.2 115.3c2.3 6.1 8.2 10.2 14.8 10.2l33.1 0.1c12.9 0 21.8-13 16.9-25zM675.3 780.1l79.5-190.3 71.5 190.3h-151zM452.6 605.1l194.6-332h80.1c20.6 0 37.2-16.7 37.2-37.2 0-20.6-16.7-37.2-37.2-37.2H434.2v-95c0-20.6-16.7-37.2-37.2-37.2-20.6 0-37.2 16.7-37.2 37.2v95h-259c-20.6 0-37.2 16.7-37.2 37.2 0 20.6 16.7 37.2 37.2 37.2h460L405.7 538 287.6 369c-11.8-16.8-35-20.9-51.8-9.2-16.8 11.8-21 35-9.2 51.8l137.6 197L206.3 878c-10.4 17.7-4.4 40.5 13.3 50.9 5.9 3.5 12.4 5.1 18.8 5.1 12.8 0 25.2-6.6 32.1-18.4l140.6-239.9 41 58.7c7.2 10.4 18.8 15.9 30.5 15.9 7.4 0 14.8-2.2 21.3-6.7 16.8-11.8 21-35 9.2-51.8l-60.5-86.7z" fill="#2c2c2c" p-id="17063"></path></svg>
