<svg t="1693279009208" class="icon" viewBox="0 0 1025 1024" version="1.1" xmlns="http://www.w3.org/2000/svg" p-id="8938" width="200" height="200"><path d="M1011.064471 325.817725c7.12115 0 12.938876-6.09715 12.938876-12.938876l0-67.210876c0-7.12115-5.493124-12.938876-12.938876-12.938876L12.942222 232.729098c-7.12115 0-12.938876 6.09715-12.938876 12.938876l0 67.210876c0 7.12115 5.493124 12.938876 12.938876 12.938876L1011.064471 325.817725z" p-id="8939"></path><path d="M0.003346 545.606275c0 7.12115 5.493124 12.938876 12.938876 12.938876l998.120575 0c7.12115 0 12.938876-6.09715 12.938876-12.938876l0-67.210876c0-7.168-5.493124-12.938876-12.938876-12.938876L12.942222 465.456523c-7.12115 0-12.938876 6.09715-12.938876 12.938876L0.003346 545.606275z" p-id="8940"></path><path d="M0.003346 778.333699c0 7.12115 5.493124 12.938876 12.938876 12.938876l998.120575 0c7.12115 0 12.938876-6.09715 12.938876-12.938876l0-67.210876c0-7.12115-5.493124-12.938876-12.938876-12.938876L12.942222 698.183948c-7.12115 0-12.938876 6.09715-12.938876 12.938876L0.003346 778.333699z" p-id="8941"></path></svg>
