<svg t="1692534663138" class="icon" viewBox="0 0 1024 1024" version="1.1" xmlns="http://www.w3.org/2000/svg" p-id="29538" width="200" height="200"><path d="M823.625 609.519c-41.090 129.122-161.968 222.665-304.706 222.665-176.569 0-319.699-143.139-319.699-319.699 0-176.57 143.138-319.699 319.699-319.699 104.59 0 197.444 50.233 255.774 127.881h-127.888c-11.773 0-21.315 9.546-21.315 21.315s9.542 21.315 21.315 21.315h170.509c11.766 0 21.315-9.542 21.315-21.315v-170.509c0-11.771-9.546-21.315-21.315-21.315s-21.315 9.547-21.315 21.315v107.547c-66.464-78.799-165.922-128.858-277.077-128.858-200.108 0-362.335 162.222-362.335 362.335 0 200.108 162.222 362.326 362.335 362.326 165.041 0 304.303-110.34 348.044-261.275-12.703-11.504-31.107-16.834-43.343-4.012z" fill="" p-id="29539"></path></svg>
