<svg t="1692459076852" class="icon" viewBox="0 0 1024 1024" version="1.1" xmlns="http://www.w3.org/2000/svg" p-id="9479" width="200" height="200"><path d="M972.275472 720.777953c26.051218-61.215154 39.261697-126.254341 39.261697-193.315852 0-12.836655-10.489532-23.278182-23.426282-23.278182-12.914279 0-23.429346 10.441528-23.429346 23.278182 0 60.842352-11.962357 119.761453-35.566358 175.184383-22.803242 53.57424-55.448465 101.651433-97.033792 142.989588-41.459698 41.259508-89.888245 73.70352-143.886356 96.432202-55.796754 23.452838-115.063123 35.366168-176.206781 35.366168-61.091568 0-120.384492-11.913331-176.205759-35.366168-53.974619-22.728682-102.404188-55.172693-143.888399-96.432202-41.585327-41.311599-74.255063-89.415348-97.059327-142.989588-23.601959-55.472978-35.565337-114.391057-35.565337-175.184383 0-60.69221 11.962357-119.611311 35.565337-175.083267 22.778729-53.523171 55.42293-101.652455 97.059327-143.038614 41.60984-41.360625 90.013874-73.805657 143.888399-96.433223 55.795733-23.429346 115.065166-35.266073 176.205759-35.266073 73.505373 0 143.912912 17.208144 209.251361 51.175027 15.386009 8.341578 28.571975 16.28482 40.31065 24.401696l5.044576 3.521705-6.067995 1.022397-98.532151 16.483989c-12.713068 2.148975-21.33144 14.186914-19.207999 26.87649 1.924273 11.213688 11.63858 19.356098 23.130083 19.356098 1.272635 0 2.572846-0.100095 3.869994-0.299263l160.500059-26.875469c6.217116-1.021376 11.609982-4.44605 15.20829-9.465092 3.648355-5.06909 5.071132-11.214709 4.022179-17.358287l-24.927705-146.985211c-1.924273-11.314804-11.539507-19.50624-22.877803-19.50624-1.348216 0-2.721967 0.150142-4.122274 0.399358-12.73656 2.148975-21.379444 14.187935-19.230469 26.8244l8.591816 50.626548 4.819874 33.369378 0.800759 5.519516-4.670753-3.070257c-81.973602-54.099227-177.405876-82.696736-275.913514-82.696736-67.459848 0-132.873879 13.161452-194.440387 39.061507-59.592188 25.075804-112.992794 60.892399-158.748399 106.39879-45.832209 45.508433-81.846951 98.581177-107.073919 157.799541-26.049176 61.268266-39.261697 126.306431-39.261697 193.216778 0 67.035977 13.188008 132.049629 39.261697 193.315852 25.177942 59.120312 61.193705 112.245146 107.048385 157.750515 45.805653 45.557459 99.230772 81.373033 158.773934 106.448837 61.766697 25.900055 127.179707 39.039037 194.440387 39.039037 67.259658 0 132.674711-13.112426 194.440387-39.039037 59.544183-25.075804 112.942746-60.891378 158.750442-106.448837C911.081767 833.047613 947.099573 779.921757 972.275472 720.777953L972.275472 720.777953z" fill="#272536" p-id="9480"></path><path d="M787.474833 98.721105l1.026483 12.338223c0.273729 0.199168 0.548479 0.349311 0.823229 0.499453L787.474833 98.721105 787.474833 98.721105z" fill="#272536" p-id="9481"></path><path d="M759.002953 155.465697l1.123514-0.199168c-2.773036-1.897717-5.645146-3.571752-8.467208-5.420443C754.106476 151.743802 756.730392 153.418859 759.002953 155.465697L759.002953 155.465697z" p-id="9482"></path></svg>
