<svg t="1692588835792" class="icon" viewBox="0 0 1024 1024" version="1.1" xmlns="http://www.w3.org/2000/svg" p-id="7641" width="200" height="200"><path d="M510.1568 890.0608h-0.8192c-98.9184-0.2048-192.1024-38.912-261.9392-109.1584C177.5616 710.656 139.264 617.472 139.4688 518.5536c0.4096-204.1856 166.7072-369.8688 370.688-369.8688h0.8192c105.8816 0.2048 209.92 49.7664 281.3952 131.6864l15.36-94.6176c1.8432-11.264 12.288-18.6368 23.552-16.9984 11.264 1.8432 18.6368 12.288 16.9984 23.552l-23.1424 141.312c-1.4336 8.192-7.5776 14.9504-15.7696 16.7936-8.192 1.8432-16.5888-1.6384-21.2992-8.6016-62.8736-93.5936-169.1648-151.9616-277.0944-152.1664h-0.8192c-181.4528 0-329.3184 147.456-329.728 328.9088-0.2048 88.064 33.9968 171.008 96.0512 233.2672 62.0544 62.464 144.7936 96.8704 232.8576 97.0752h0.8192c87.8592 0 170.3936-33.9968 232.6528-96.0512 62.464-62.0544 96.8704-144.7936 97.0752-232.8576 0-11.264 9.216-20.48 20.48-20.48s20.48 9.216 20.48 20.48c-0.2048 98.9184-38.912 192.1024-109.1584 261.9392-70.0416 69.8368-162.816 108.1344-261.5296 108.1344z" p-id="7642"></path><path d="M805.0688 352.8704h-0.6144l-151.3472-4.3008c-11.264-0.4096-20.2752-9.8304-19.8656-21.0944 0.4096-11.0592 9.4208-19.8656 20.48-19.8656h0.6144l151.3472 4.3008c11.264 0.4096 20.2752 9.8304 19.8656 21.0944-0.4096 11.0592-9.4208 19.8656-20.48 19.8656z" p-id="7643"></path></svg>
